<svg viewBox="0 0 64 64" xmlns="http://www.w3.org/2000/svg">
  <path d="M59 33h-5v-1a1 1 0 00-1-1h-9a3.01 3.01 0 00-2.82 2H14V8h11v2.14A4 4 0 0022 14v2.05a2.5 2.5 0 00.5 4.95h11a2.5 2.5 0 00.5-4.95V14a4 4 0 00-3-3.86V5a3.009 3.009 0 00-3-3H11a3.009 3.009 0 00-3 3v28H5a3 3 0 000 6v4a13.009 13.009 0 009 12.36V57h-1.5a2.5 2.5 0 000 5H16a3.009 3.009 0 003-3v-3h26v3a3.009 3.009 0 003 3h3.5a2.5 2.5 0 000-5H50v-1.64A13.009 13.009 0 0059 43v-4a3 3 0 000-6zm-16 1a1 1 0 011-1h8v8h-9zm0 9h9v2h-9zm-9.5-25a.5.5 0 010 1h-11a.5.5 0 010-1zM32 14v2h-8v-2a2.006 2.006 0 012-2h4a2.006 2.006 0 012 2zM10 5a1 1 0 011-1h17a1 1 0 011 1v5h-2V8a2.006 2.006 0 00-2-2H14a2.006 2.006 0 00-2 2v25h-2zM5 37a1 1 0 010-2h36v2zm12 22a1 1 0 01-1 1h-3.5a.5.5 0 010-1H15a1 1 0 001-1v-2.17c.33.05.66.09 1 .12zm34.5 0a.5.5 0 010 1H48a1 1 0 01-1-1v-3.05c.34-.03.67-.07 1-.12V58a1 1 0 001 1zM57 43a11.007 11.007 0 01-11 11H18A11.007 11.007 0 017 43v-4h34v7a1 1 0 001 1h11a1 1 0 001-1v-7h3zm2-6h-5v-2h5a1 1 0 010 2z"/>
  <path d="M21 27h2v2h-2zM24 23h2v2h-2zM24 27h2v2h-2zM27 23h2v2h-2zM27 27h2v2h-2zM30 23h2v2h-2zM30 27h2v2h-2zM33 27h2v2h-2z"/>
</svg>
