<svg xmlns="http://www.w3.org/2000/svg" viewBox="0 0 512 512">
  <path d="M496 256H96v-16a8 8 0 00-8-8h-8v-24h16v8a8 8 0 0016 0v-32a8 8 0 00-16 0v8H80V96a32.03 32.03 0 0132-32h32a32.03 32.03 0 0132 32v.68A48.069 48.069 0 00136 144a8 8 0 008 8h80a8 8 0 008-8 48.069 48.069 0 00-40-47.32V96a48.051 48.051 0 00-48-48h-32a48.051 48.051 0 00-48 48v136h-8a8 8 0 00-8 8v16H16a8 8 0 00-8 8v24a8 8 0 008 8h24v96a48.069 48.069 0 0040 47.32V456a8 8 0 0016 0v-16h320v16a8 8 0 0016 0v-16.68A48.069 48.069 0 00472 392v-96h24a8 8 0 008-8v-24a8 8 0 00-8-8zM184 112a32.058 32.058 0 0130.99 24h-61.98A32.058 32.058 0 01184 112zM64 248h16v8H64zm392 144a32.03 32.03 0 01-32 32H88a32.03 32.03 0 01-32-32v-96h400zm32-112H24v-8h464z"/>
  <path d="M80 328h64a8 8 0 000-16H80a8 8 0 000 16zM168 328h8a8 8 0 000-16h-8a8 8 0 000 16z"/>
</svg>
