<svg xmlns="http://www.w3.org/2000/svg" viewBox="0 0 512 512">
  <path d="M496 344h-8v-64a32.042 32.042 0 00-32-32V112a32.042 32.042 0 00-32-32H88a32.042 32.042 0 00-32 32v136a32.042 32.042 0 00-32 32v64h-8a8 8 0 00-8 8v32a8 8 0 008 8h8v32a8 8 0 008 8h24a7.99 7.99 0 007.84-6.43L70.56 392h370.88l6.72 33.57A7.99 7.99 0 00456 432h24a8 8 0 008-8v-32h8a8 8 0 008-8v-32a8 8 0 00-8-8zM72 112a16.021 16.021 0 0116-16h336a16.021 16.021 0 0116 16v136h-16v-32a32.042 32.042 0 00-32-32h-96a32.042 32.042 0 00-32 32v32h-16v-32a32.042 32.042 0 00-32-32h-96a32.042 32.042 0 00-32 32v32H72zm336 104v32H280v-32a16.021 16.021 0 0116-16h96a16.021 16.021 0 0116 16zm-176 0v32H104v-32a16.021 16.021 0 0116-16h96a16.021 16.021 0 0116 16zM40 280a16.021 16.021 0 0116-16h400a16.021 16.021 0 0116 16v64H40zm9.44 136H40v-24h14.24zM472 416h-9.44l-4.8-24H472zm16-40H24v-16h464z"/>
</svg>
