<svg viewBox="0 0 74 74" xmlns="http://www.w3.org/2000/svg"><path d="M46.72 57.74H27.86a1 1 0 01-1-1v-1c0-5.15-1.75-6.73-5.58-10.2l-.86-.77A24.62 24.62 0 1154 44.35l-.81.77c-3.77 3.59-5.49 5.22-5.49 10.43v1.19a1 1 0 01-.98 1zm-17.86-2h16.86v-.19c0-6.07 2.3-8.26 6.11-11.88l.81-.76A22.6 22.6 0 0035.76 4a22.6 22.6 0 00-14 39.28l.85.77c3.9 3.55 6.24 5.67 6.25 11.69z"/><path d="M48.48 64.05h-23a2 2 0 01-2-2v-4.31a2 2 0 012-2h23a2 2 0 012 2v4.31a2 2 0 01-2 2zm-23-6.31v4.31h23v-4.31z"/><path d="M37 72a8.51 8.51 0 01-8.5-8.5v-.45a1 1 0 011-1h15a1 1 0 011 1v.45A8.51 8.51 0 0137 72zm-6.47-8a6.49 6.49 0 0012.94 0zM37 57.74a1 1 0 01-1-1V41.9a1 1 0 012 0v14.84a1 1 0 01-1 1z"/><path d="M37 42.9a1 1 0 01-.71-.29l-9.9-9.9a1 1 0 011.42-1.42l9.19 9.2 9.19-9.2a1 1 0 011.42 1.42l-9.9 9.9a1 1 0 01-.71.29z"/></svg>