<svg viewBox="0 0 74 74" xmlns="http://www.w3.org/2000/svg">
  <path d="M70.36 31.77L37 4.3 3.64 31.77l-1.28-1.54 34-28a1 1 0 011.28 0l34 28z"/>
  <path d="M64 26.06h2V71h-2zM8 26.06h2V71H8z"/>
  <path d="M9 29h56v2H9zM9 33h56v2H9zM9 37h56v2H9zM56 66H18a1 1 0 01-1-1v-6a5 5 0 015-5h30a5 5 0 015 5v6a1 1 0 01-1 1zm-37-2h36v-5a3 3 0 00-3-3H22a3 3 0 00-3 3z"/>
  <path d="M54 72h-4a3 3 0 01-3-3v-4a1 1 0 011-1h8a1 1 0 011 1v4a3 3 0 01-3 3zm-5-6v3a1 1 0 001 1h4a1 1 0 001-1v-3zM24 72h-4a3 3 0 01-3-3v-4a1 1 0 011-1h8a1 1 0 011 1v4a3 3 0 01-3 3zm-5-6v3a1 1 0 001 1h4a1 1 0 001-1v-3zM52 56c-1.89 0-2-1.81-2.08-3-.16-2.78-.42-7-12.92-7-13.36 0-13.44 4.89-13.49 7.51 0 .93 0 2.49-1.51 2.49v-2a.63.63 0 00-.54.35 4.86 4.86 0 00.05-.87c0-2.84.16-9.48 15.49-9.48 14.38 0 14.73 5.77 14.92 8.87a5.06 5.06 0 00.16 1.22A.24.24 0 0052 54zM47 59h4v2h-4zM22.948 60.936l.078-1.998 3.996.156-.078 1.998z"/>
  <path d="M17.273 50.728l1.434-1.394 4.44 4.568-1.434 1.394zM50.836 53.842l4.44-4.567 1.434 1.394-4.44 4.567z"/>
</svg>
