<svg viewBox="0 0 368 368" xmlns="http://www.w3.org/2000/svg">
  <path d="M360 304h-72V40c0-3.45-2.2-6.504-5.473-7.586l-96-32a8.001 8.001 0 00-2.43-.39C184.064.015 184.032 0 184 0s-.062.016-.098.023a7.944 7.944 0 00-2.43.391l-96 32A7.985 7.985 0 0080 40v264H8c-4.414 0-8 3.574-8 8v48c0 4.426 3.586 8 8 8h352c4.414 0 8-3.574 8-8v-48c0-4.426-3.586-8-8-8zm-168 0v-36.902l80 26.664V304zm80-83.098l-80-26.664v-47.14l80 26.664zm-80-9.804l80 26.664v39.14l-80-26.664zm80-54.196l-80-26.664v-47.14l80 26.664zm0-64l-80-26.664v-47.14l80 26.672zM96 45.77l80-26.672V304H96zM352 352H16v-32h336zm0 0"/>
</svg>
