<svg viewBox="0 0 512 512" xmlns="http://www.w3.org/2000/svg">
  <path d="M452 0H60C26.914 0 0 26.914 0 60v392c0 33.086 26.914 60 60 60h392c33.086 0 60-26.914 60-60V60c0-33.086-26.914-60-60-60zm20 452c0 11.027-8.973 20-20 20H334V326h64.027l7.461-62H334v-67c0-17.102 12.898-30 30-30h45v-58c-11.844-1.672-34.691-4-45-4-23.324 0-46.703 9.84-64.14 26.992-17.965 17.672-27.86 40.82-27.86 65.184V264h-65v62h65v146H60c-11.027 0-20-8.973-20-20V60c0-11.027 8.973-20 20-20h392c11.027 0 20 8.973 20 20zm0 0"/>
</svg>
