<svg xmlns="http://www.w3.org/2000/svg" viewBox="0 0 512 512">
  <path d="M506.283 161.216l-245.333-128a10.638 10.638 0 00-9.877 0l-245.333 128a10.649 10.649 0 00-.001 18.902l245.333 128a10.588 10.588 0 009.856 0l245.333-128c3.52-1.835 5.739-5.461 5.739-9.451s-2.219-7.616-5.717-9.451zM256 286.656L33.728 170.667 256 54.677l222.272 115.989L256 286.656z"/>
  <path d="M506.283 246.528l-35.669-18.603c-5.205-2.667-11.669-.704-14.4 4.523-2.731 5.227-.704 11.669 4.523 14.4L478.272 256 256 371.989 33.728 256l17.557-9.131c5.227-2.731 7.253-9.173 4.523-14.4-2.731-5.248-9.195-7.189-14.4-4.523L5.739 246.549C2.219 248.384 0 252.011 0 256s2.219 7.616 5.739 9.451l245.333 128a10.588 10.588 0 009.856 0l245.333-128c3.52-1.835 5.739-5.461 5.739-9.451s-2.219-7.616-5.717-9.472z"/>
  <path d="M506.283 331.861l-35.669-18.603c-5.205-2.667-11.669-.704-14.4 4.523-2.731 5.227-.704 11.669 4.523 14.4l17.536 9.152L256 457.323 33.728 341.333l17.557-9.131c5.227-2.731 7.253-9.173 4.523-14.4-2.731-5.227-9.195-7.211-14.4-4.523L5.739 331.883a10.649 10.649 0 000 18.901l245.333 128a10.588 10.588 0 009.856 0l245.333-128a10.648 10.648 0 005.739-9.451c0-3.989-2.219-7.616-5.717-9.472z"/>
</svg>
