<svg xmlns="http://www.w3.org/2000/svg" viewBox="0 0 512 512">
  <path d="M505.031 209.536c-22.446-7.146-72.056-14.678-123.44-15.247-45.93-.505-110.986 4.241-162.364 29.422-108.42-24.554-187.012-22.215-212.26-14.175A9.998 9.998 0 000 219.064v254.661c0 5.523 4.477 10 10 10h153.673c.025 0 .049.003.074.003.025 0 .049-.003.074-.003H334.74l.017.001.026-.001h167.215c5.522 0 10-4.477 10-10V344.028a8.066 8.066 0 000-.381V219.064a9.998 9.998 0 00-6.967-9.528zM20 463.725V369.33c56.894 2.705 105.871 38.542 129.329 94.395H20zm471.998 0H339.909v-.001c-62.417-87.804-139.303-143.449-228.621-165.378a9.998 9.998 0 00-12.097 7.327c-1.316 5.363 1.964 10.779 7.327 12.096 80.564 19.78 150.677 68.849 208.647 145.956H170.83c-12.125-32.617-32.269-60.427-58.574-80.748-26.86-20.748-58.585-32.295-92.256-33.675v-87.985c46.871-2.231 123.5 5.426 208.838 33.589 71.238 23.509 174.379 70.164 263.16 159.158v9.661zm0-37.537c-88.177-82.888-187.334-127.32-256.893-150.275-42.59-14.056-85.601-24.095-127.839-29.838-31.896-4.337-61.796-5.968-87.266-4.79v-14.359c23.426-4.341 79.115-5.381 155.564 8.269 72.694 12.979 186.228 43.382 316.435 114.547v76.446zm0-99.182a1181.542 1181.542 0 00-54.698-27.46c16.489-2.755 35.643-3.555 54.698-.375v27.835zm0-48.069c-31.495-4.566-62.835.257-84.219 7.24a1118.866 1118.866 0 00-62.603-25.101c22.628-3.688 46.765-5.548 70.496-5.325 5.492.054 10.041-4.382 10.095-9.905.052-5.523-4.383-10.042-9.905-10.094-46.877-.437-83.894 6.443-107.433 12.614a1027.953 1027.953 0 00-56.393-16.617c85.646-29.57 201.383-14.73 239.962-5.097v52.285zM171.446 28.273c-27.019 0-49 21.981-49 49 0 27.018 21.982 49 49 49 27.019 0 49-21.981 49-49s-21.981-49-49-49zm0 78c-15.99 0-29-13.009-29-29s13.01-29 29-29 29 13.009 29 29-13.01 29-29 29z"/>
  <path d="M447.232 237.161l-.584-.046a9.99 9.99 0 00-10.749 9.191c-.43 5.505 3.684 10.317 9.19 10.748l.549.044c.272.021.54.032.808.032 5.162 0 9.539-3.97 9.958-9.204.44-5.505-3.667-10.325-9.172-10.765zM81.479 292.342a2.43 2.43 0 00-.097-.015c-5.436-.907-10.6 2.772-11.508 8.22-.907 5.448 2.772 10.6 8.221 11.508l.257.041a10.05 10.05 0 001.576.125c4.833 0 9.085-3.513 9.864-8.438.862-5.456-2.859-10.578-8.313-11.441z"/>
</svg>
