<svg viewBox="0 0 55 55" xmlns="http://www.w3.org/2000/svg" data-name="Layer 1"><path d="M49.86 46H5.14a2.39 2.39 0 01-2.39-2.39V11.35A2.39 2.39 0 015.14 9h44.72a2.39 2.39 0 012.39 2.39v32.3A2.39 2.39 0 0149.86 46zM5.14 10.46a.89.89 0 00-.89.89v32.3a.89.89 0 00.89.89h44.72a.89.89 0 00.89-.89v-32.3a.89.89 0 00-.89-.89z"/><path d="M37 46a.73.73 0 01-.57-.26l-21-24.54L4.06 34a.75.75 0 01-1.12-1l11.93-13.4a.71.71 0 01.57-.25.76.76 0 01.56.26L37.52 44.8a.76.76 0 01-.09 1.06.74.74 0 01-.43.14z"/><path d="M33 41.38a.74.74 0 01-.62-1.17l10.1-14.73a.74.74 0 01.62-.33.74.74 0 01.62.33l8.4 12.23a.75.75 0 01-.2 1 .75.75 0 01-1-.2L43.1 27.22l-9.51 13.83a.74.74 0 01-.59.33zM33 25.49a4.68 4.68 0 114.68-4.68A4.69 4.69 0 0133 25.49zm0-7.86a3.18 3.18 0 103.18 3.18A3.19 3.19 0 0033 17.63z"/></svg>