<svg viewBox="0 0 74 74" xmlns="http://www.w3.org/2000/svg">
  <path d="M46 57H28a1 1 0 01-1-1v-.49a12.28 12.28 0 00-4.14-9 21 21 0 1128.59-30.75 21 21 0 01-.31 30.75 12.28 12.28 0 00-4.14 9V56a1 1 0 01-1 1zm-17-2h16a14.38 14.38 0 014.78-10A19 19 0 0056 31a19 19 0 00-20-19 19 19 0 00-11.79 33A14.38 14.38 0 0129 55zM44 65H30a3 3 0 010-6h14a3 3 0 010 6zm-14-4a1 1 0 000 2h14a1 1 0 000-2zM41 72h-8a3 3 0 010-6h8a3 3 0 010 6zm-8-4a1 1 0 000 2h8a1 1 0 000-2zM36 3h2v5h-2zM22.134 7.255l1.732-1 2.5 4.33-1.732 1zM12.25 17.86l1-1.732 4.33 2.5-1 1.732z"/>
  <path d="M9 30h5v2H9zM12.26 44.132l4.33-2.5 1 1.732-4.33 2.5zM47.644 10.591l2.5-4.33 1.732 1-2.5 4.33zM56.413 18.629l4.33-2.5 1 1.732-4.33 2.5zM60 30h5v2h-5zM56.412 43.368l1-1.732 4.33 2.5-1 1.732z"/>
</svg>
