<svg xmlns="http://www.w3.org/2000/svg" viewBox="0 0 511.999 511.999">
  <path d="M409.124 63.426C368.224 22.525 313.843 0 256.001 0S143.777 22.525 102.877 63.426c-40.901 40.902-63.426 95.282-63.426 153.123 0 117.012 110.638 214.337 170.077 266.623 8.26 7.266 15.393 13.541 21.076 18.849 7.12 6.651 16.259 9.977 25.396 9.977 9.139 0 18.276-3.326 25.397-9.977 5.683-5.309 12.816-11.583 21.076-18.849 59.439-52.287 170.077-149.611 170.077-266.623-.001-57.841-22.525-112.221-63.426-153.123zM282.663 460.654c-8.441 7.425-15.73 13.838-21.74 19.451-2.761 2.577-7.085 2.578-9.847 0-6.009-5.615-13.299-12.027-21.74-19.452-55.88-49.155-159.895-140.654-159.895-244.103 0-102.868 83.689-186.557 186.558-186.557 102.868 0 186.557 83.689 186.557 186.557.001 103.449-104.013 194.948-159.893 244.104z"/>
  <path d="M256.001 112.938c-52.621 0-95.431 42.809-95.431 95.43s42.81 95.43 95.431 95.43 95.43-42.809 95.43-95.43-42.809-95.43-95.43-95.43zm0 160.867c-36.083 0-65.439-29.356-65.439-65.438s29.356-65.438 65.439-65.438 65.438 29.356 65.438 65.438-29.355 65.438-65.438 65.438z"/>
</svg>
