<svg viewBox="0 0 55 55" xmlns="http://www.w3.org/2000/svg" data-name="Layer 1">
  <path d="M38.88 28.25h-6.79a.77.77 0 01-.36-.09l-3-1.62a.72.72 0 01-.3-.3l-1.63-3a.77.77 0 01-.09-.36V3.5a.75.75 0 01.46-.69A.74.74 0 0128 3l11.38 11a.74.74 0 01.23.54v13a.76.76 0 01-.73.71zm-6.6-1.5h5.85V14.8l-9.88-9.53v17.45l1.43 2.61z"/>
  <path d="M22.92 28.25H3.5a.75.75 0 01-.69-.46A.74.74 0 013 27l11-11.38a.74.74 0 01.54-.23h13a.76.76 0 01.75.75v6.8a.7.7 0 01-.09.35l-1.62 3a.72.72 0 01-.3.3l-3 1.62a.7.7 0 01-.36.04zm-17.65-1.5h17.45l2.61-1.42 1.42-2.61v-5.85H14.8z"/>
  <path d="M27.5 52.25A.73.73 0 0127 52L15.62 41a.74.74 0 01-.23-.54v-13a.76.76 0 01.75-.75h6.8a.7.7 0 01.35.09l3 1.62a.72.72 0 01.3.3l1.62 3a.7.7 0 01.09.35V51.5a.75.75 0 01-.46.69.72.72 0 01-.34.06zm-10.63-12l9.88 9.53v-17.5l-1.42-2.61-2.61-1.42h-5.85z"/>
  <path d="M40.52 39.63h-13a.76.76 0 01-.75-.75v-6.8a.77.77 0 01.09-.36l1.63-3a.72.72 0 01.3-.3l3-1.62a.77.77 0 01.36-.09H51.5a.75.75 0 01.69.46.74.74 0 01-.19.83L41 39.38a.73.73 0 01-.48.25zm-12.27-1.5h12l9.52-9.88H32.28l-2.6 1.42-1.43 2.61z"/>
  <path d="M27.5 32.83a.76.76 0 01-.66-.39l-1.51-2.77-2.77-1.51a.75.75 0 010-1.32l2.77-1.51 1.51-2.77a.76.76 0 01.66-.39.75.75 0 01.66.38l1.52 2.78 2.77 1.51a.75.75 0 010 1.32l-2.77 1.51-1.52 2.78a.75.75 0 01-.66.38zm-3-5.33l1.76 1a.72.72 0 01.3.3l1 1.76 1-1.76a.72.72 0 01.3-.3l1.76-1-1.76-1a.72.72 0 01-.3-.3l-1-1.76-1 1.76a.72.72 0 01-.3.3z"/>
  <path d="M25.88 26.63a.76.76 0 01-.49-.18L14 16.69a.75.75 0 111-1.14l11.4 9.76a.75.75 0 01-.49 1.32zM16.12 41.27a.75.75 0 01-.57-1.27l9.76-11.4a.75.75 0 111.14 1L16.69 41a.76.76 0 01-.57.27zM40.52 39.63a.76.76 0 01-.49-.18l-11.4-9.76a.75.75 0 111-1.14L41 38.31a.75.75 0 01-.49 1.32zM29.12 26.63a.78.78 0 01-.49-.18.76.76 0 01-.08-1.06L38.31 14a.75.75 0 011.14 1l-9.76 11.4a.76.76 0 01-.57.23z"/>
</svg>
