<svg xmlns="http://www.w3.org/2000/svg" viewBox="0 0 74 74">
  <path d="M59.661 50.5a13.04 13.04 0 01-6.072-1.335A11.2 11.2 0 0048.323 48a11.188 11.188 0 00-5.263 1.165 13.025 13.025 0 01-6.068 1.335 13.031 13.031 0 01-6.07-1.335A11.189 11.189 0 0025.658 48a11.188 11.188 0 00-5.258 1.17 13.025 13.025 0 01-6.073 1.33 13.015 13.015 0 01-6.066-1.33A11.179 11.179 0 003 48a1 1 0 010-2 13.018 13.018 0 016.068 1.34 11.177 11.177 0 005.259 1.16 11.187 11.187 0 005.262-1.165A13.026 13.026 0 0125.658 46a13.031 13.031 0 016.07 1.335 11.189 11.189 0 005.264 1.165 11.187 11.187 0 005.262-1.165A13.026 13.026 0 0148.323 46a13.04 13.04 0 016.077 1.34 12.484 12.484 0 0010.532 0A13.04 13.04 0 0171 46a1 1 0 010 2 11.2 11.2 0 00-5.266 1.165 13.041 13.041 0 01-6.073 1.335zM59.661 58.5a13.04 13.04 0 01-6.072-1.335A11.2 11.2 0 0048.323 56a11.188 11.188 0 00-5.263 1.165 13.025 13.025 0 01-6.068 1.335 13.031 13.031 0 01-6.07-1.335A11.189 11.189 0 0025.658 56a11.188 11.188 0 00-5.258 1.17 13.025 13.025 0 01-6.073 1.33 13.015 13.015 0 01-6.066-1.33A11.179 11.179 0 003 56a1 1 0 010-2 13.018 13.018 0 016.068 1.34 11.177 11.177 0 005.259 1.16 11.187 11.187 0 005.262-1.165A13.026 13.026 0 0125.658 54a13.031 13.031 0 016.07 1.335 11.189 11.189 0 005.264 1.165 11.187 11.187 0 005.262-1.165A13.026 13.026 0 0148.323 54a13.04 13.04 0 016.077 1.34 12.484 12.484 0 0010.532 0A13.04 13.04 0 0171 54a1 1 0 010 2 11.2 11.2 0 00-5.266 1.165 13.041 13.041 0 01-6.073 1.335zM59.661 66.5a13.04 13.04 0 01-6.072-1.335A11.2 11.2 0 0048.323 64a11.188 11.188 0 00-5.263 1.165 13.025 13.025 0 01-6.068 1.335 13.031 13.031 0 01-6.07-1.335A11.189 11.189 0 0025.658 64a11.188 11.188 0 00-5.258 1.17 13.025 13.025 0 01-6.073 1.33 13.015 13.015 0 01-6.066-1.33A11.179 11.179 0 003 64a1 1 0 010-2 13.018 13.018 0 016.068 1.34 11.177 11.177 0 005.259 1.16 11.187 11.187 0 005.262-1.165A13.026 13.026 0 0125.658 62a13.031 13.031 0 016.07 1.335 11.189 11.189 0 005.264 1.165 11.187 11.187 0 005.262-1.165A13.026 13.026 0 0148.323 62a13.04 13.04 0 016.077 1.34 12.484 12.484 0 0010.532 0A13.04 13.04 0 0171 62a1 1 0 010 2 11.2 11.2 0 00-5.266 1.165 13.041 13.041 0 01-6.073 1.335z"/>
  <path d="M37 50.5a1 1 0 01-1-1V14a6.5 6.5 0 1113 0 1 1 0 11-2 0 4.5 4.5 0 10-9 0v35.5a1 1 0 01-1 1zM59.5 50.5a1 1 0 01-1-1V14a6.5 6.5 0 1113 0 1 1 0 11-2 0 4.5 4.5 0 10-9 0v35.5a1 1 0 01-1 1z"/>
  <path d="M59.5 24.255H37a1 1 0 010-2h22.5a1 1 0 010 2zM59.5 32.255H37a1 1 0 010-2h22.5a1 1 0 010 2zM59.5 40.255H37a1 1 0 010-2h22.5a1 1 0 010 2z"/>
</svg>
