<?xml version="1.0" standalone="no"?>
<!DOCTYPE svg PUBLIC "-//W3C//DTD SVG 20010904//EN"
 "http://www.w3.org/TR/2001/REC-SVG-20010904/DTD/svg10.dtd">
<svg version="1.0" xmlns="http://www.w3.org/2000/svg"
 width="145.000000pt" height="145.000000pt" viewBox="0 0 145.000000 145.000000"
 preserveAspectRatio="xMidYMid meet">
<metadata>
Created by potrace 1.14, written by Peter Selinger 2001-2017
</metadata>
<g transform="translate(0.000000,145.000000) scale(0.100000,-0.100000)"
fill="#000000" stroke="none">
<path d="M375 1360 c-3 -5 -39 -212 -50 -285 -3 -23 -7 -50 -9 -60 -11 -60
-96 -580 -96 -590 0 -4 10 -5 22 -3 23 3 22 1 52 193 3 17 25 152 50 300 24
149 47 284 49 300 17 107 16 105 61 105 l41 0 109 -296 c60 -162 112 -297 116
-299 4 -2 56 130 117 293 l110 297 44 3 c38 2 45 0 46 -16 1 -15 32 -205 68
-422 28 -169 35 -210 39 -240 3 -19 10 -69 17 -110 6 -41 12 -82 14 -90 1 -8
12 -17 25 -18 22 -4 23 -2 16 45 -3 26 -8 59 -11 73 -5 30 -74 451 -81 500 -3
19 -7 46 -9 60 -3 14 -12 70 -20 125 -24 147 -20 142 -104 140 -38 0 -72 -3
-74 -5 -3 -3 -47 -119 -98 -258 -51 -139 -96 -249 -101 -244 -4 4 -48 117 -97
251 -49 133 -92 245 -96 249 -7 8 -145 10 -150 2z"/>
<path d="M1125 1349 c-11 -4 -14 -8 -7 -8 6 -1 12 -11 13 -23 1 -19 2 -18 10
6 10 35 10 36 -16 25z"/>
<path d="M1162 1327 c1 -14 9 -24 20 -24 21 -2 22 1 8 28 -15 26 -30 24 -28
-4z"/>
<path d="M1200 1341 c0 -5 3 -17 6 -26 5 -12 9 -14 14 -4 5 7 6 18 3 26 -6 15
-23 18 -23 4z"/>
<path d="M476 1002 c-3 -10 -14 -84 -26 -167 -11 -82 -25 -175 -30 -205 -5
-30 -12 -77 -15 -105 -3 -27 -8 -62 -11 -77 -3 -23 -1 -28 15 -28 25 0 28 4
36 69 4 30 8 61 10 70 1 9 6 41 10 71 4 30 9 62 10 70 1 8 6 40 11 70 4 30 9
58 10 63 1 4 2 19 3 35 l2 27 14 -30 c8 -16 35 -88 61 -160 25 -71 58 -164 72
-205 l28 -75 45 -3 46 -3 57 163 c32 90 69 196 83 236 14 40 28 70 30 68 3 -3
7 -24 9 -48 2 -24 8 -65 13 -93 5 -27 12 -71 16 -96 3 -25 8 -57 10 -70 2 -13
6 -42 9 -64 12 -83 17 -95 38 -95 18 0 20 4 13 48 -3 26 -8 61 -11 77 -2 17
-13 93 -24 170 -11 77 -25 174 -31 215 -10 68 -20 89 -42 90 -4 0 -9 -6 -12
-12 -2 -7 -26 -76 -54 -153 -27 -77 -69 -195 -92 -262 -30 -88 -47 -123 -59
-123 -11 0 -25 28 -47 93 -71 207 -154 441 -159 446 -12 12 -34 8 -38 -7z"/>
<path d="M287 279 c-80 -21 -100 -131 -32 -175 103 -67 215 64 129 150 -28 28
-58 35 -97 25z m77 -51 c39 -55 4 -115 -64 -109 -26 2 -40 16 -49 49 -8 25 -6
36 11 57 26 33 80 35 102 3z"/>
<path d="M518 278 c-15 -5 -30 -18 -33 -29 -8 -23 19 -69 40 -69 20 0 45 -28
39 -44 -9 -24 -46 -27 -51 -5 -6 21 -11 23 -31 10 -10 -6 -9 -12 5 -28 29 -34
57 -37 89 -10 37 32 28 68 -27 102 -47 30 -43 50 8 40 26 -5 34 -3 31 6 -8 24
-42 37 -70 27z"/>
<path d="M914 195 c-36 -76 -43 -100 -32 -106 9 -6 17 0 26 16 17 33 85 36
102 5 9 -17 40 -29 40 -16 0 5 -82 190 -86 195 -2 2 -24 -40 -50 -94z m60 -1
c10 -26 7 -34 -15 -34 -15 0 -19 4 -15 16 3 9 6 20 6 25 0 15 17 10 24 -7z"/>
<path d="M689 251 c-64 -65 -14 -171 79 -164 6 0 19 1 27 2 8 0 15 10 15 22 0
16 -4 19 -17 13 -74 -32 -131 46 -79 108 14 16 26 19 57 15 34 -4 39 -2 39 14
0 16 -7 19 -46 19 -37 0 -51 -5 -75 -29z"/>
<path d="M1110 185 c0 -78 3 -95 15 -95 16 0 19 9 17 49 -2 28 3 24 32 -24 15
-25 25 -32 35 -26 12 8 11 15 -6 43 -20 34 -20 35 -2 46 24 16 25 64 1 85 -10
10 -35 17 -55 17 l-37 0 0 -95z m70 55 c11 -7 12 -14 4 -27 -15 -24 -33 -28
-40 -9 -7 18 1 46 13 46 4 0 15 -5 23 -10z"/>
</g>
</svg>
